<svg width="388" height="365" viewBox="0 0 388 365" fill="none" xmlns="http://www.w3.org/2000/svg">
<path fill-rule="evenodd" clip-rule="evenodd" d="M288.385 364.362C298.707 371.495 375.933 316.568 382.695 312.288C391.592 299.804 386.609 207.783 386.609 199.58C368.104 181.033 296.928 143.582 288.385 144.295C279.842 145.009 212.584 181.389 191.943 196.726C190.519 206.713 189.96 298.662 193.722 309.434C196.214 316.568 277.354 364.362 288.385 364.362ZM349.241 220.266C346.631 212.42 295.503 183.529 288.385 185.313C283.047 182.459 230.022 213.49 230.022 219.553C227.531 227.043 225.451 279.831 230.021 289.104C233.01 295.168 283.047 325.128 289.097 323.345C297.638 324.771 340.344 296.238 345.326 292.671C354.935 287.677 350.901 225.26 349.241 220.266Z" fill="#F02076"/>
<path fill-rule="evenodd" clip-rule="evenodd" d="M157.046 354.654C173.667 366.15 298.026 277.634 308.915 270.736C323.242 250.619 315.219 102.327 315.219 89.1067C285.419 59.2183 170.802 -1.13335 157.046 0.0161905C143.29 1.16573 34.9821 59.7931 1.743 84.5085C-0.548984 100.602 -1.44946 248.778 4.60898 266.138C8.62075 277.634 139.282 354.654 157.046 354.654ZM255.044 122.444C250.841 109.799 168.508 63.2416 157.046 66.1155C148.45 61.5173 63.063 111.523 63.0628 121.294C59.0511 133.365 55.7019 218.432 63.0621 233.376C67.8743 243.147 148.451 291.429 158.193 288.555C171.947 290.854 240.716 244.872 248.74 239.124C264.213 231.077 257.718 130.491 255.044 122.444Z" fill="#8E00FF"/>
<path d="M288.417 185.313C295.533 183.529 346.645 212.42 349.253 220.266C350.914 225.26 354.946 287.677 345.34 292.671C340.359 296.238 297.668 324.771 289.129 323.345L288.417 364.362C298.736 371.495 375.937 316.568 382.696 312.288C391.591 299.804 386.61 207.783 386.61 199.58C368.11 181.033 296.957 143.582 288.417 144.295C279.878 145.009 212.641 181.389 192.006 196.726L230.073 219.553C230.073 213.49 283.081 182.459 288.417 185.313Z" fill="#F02076"/>
</svg>
